<mxfile host="app.diagrams.net" modified="2021-04-11T23:05:10.289Z" agent="5.0 (Windows NT 10.0; Win64; x64) AppleWebKit/537.36 (KHTML, like Gecko) Chrome/89.0.4389.114 Safari/537.36" etag="zsNt0CgOAlNotxxXeZr1" version="14.5.8" type="github">
  <diagram id="AyqP90zpoqItvcZnWmW6" name="Page-1">
    <mxGraphModel dx="1117" dy="799" grid="1" gridSize="10" guides="1" tooltips="1" connect="1" arrows="1" fold="1" page="1" pageScale="1" pageWidth="850" pageHeight="1100" math="0" shadow="0">
      <root>
        <mxCell id="0" />
        <mxCell id="1" parent="0" />
        <mxCell id="FmSPM2KVEhR57PtNCctB-158" value="" style="shape=flexArrow;endArrow=classic;html=1;fillColor=#1ba1e2;strokeColor=#006EAF;" edge="1" parent="1">
          <mxGeometry width="50" height="50" relative="1" as="geometry">
            <mxPoint x="692" y="712.0000000000002" as="sourcePoint" />
            <mxPoint x="809" y="712.0000000000002" as="targetPoint" />
          </mxGeometry>
        </mxCell>
        <mxCell id="FmSPM2KVEhR57PtNCctB-159" value="" style="shape=flexArrow;endArrow=classic;html=1;fillColor=#1ba1e2;strokeColor=#006EAF;" edge="1" parent="1">
          <mxGeometry width="50" height="50" relative="1" as="geometry">
            <mxPoint x="693" y="764.0000000000002" as="sourcePoint" />
            <mxPoint x="810" y="764.0000000000002" as="targetPoint" />
          </mxGeometry>
        </mxCell>
        <mxCell id="FmSPM2KVEhR57PtNCctB-160" value="" style="shape=flexArrow;endArrow=classic;html=1;fillColor=#1ba1e2;strokeColor=#006EAF;" edge="1" parent="1">
          <mxGeometry width="50" height="50" relative="1" as="geometry">
            <mxPoint x="692" y="900.0000000000005" as="sourcePoint" />
            <mxPoint x="809" y="900.0000000000005" as="targetPoint" />
          </mxGeometry>
        </mxCell>
        <mxCell id="FmSPM2KVEhR57PtNCctB-161" value="" style="shape=flexArrow;endArrow=classic;html=1;fillColor=#1ba1e2;strokeColor=#006EAF;" edge="1" parent="1">
          <mxGeometry width="50" height="50" relative="1" as="geometry">
            <mxPoint x="693" y="945.0000000000005" as="sourcePoint" />
            <mxPoint x="810" y="945.0000000000005" as="targetPoint" />
          </mxGeometry>
        </mxCell>
        <mxCell id="FmSPM2KVEhR57PtNCctB-162" value="" style="shape=flexArrow;endArrow=classic;html=1;fillColor=#1ba1e2;strokeColor=#006EAF;" edge="1" parent="1">
          <mxGeometry width="50" height="50" relative="1" as="geometry">
            <mxPoint x="696" y="991.0000000000005" as="sourcePoint" />
            <mxPoint x="813" y="991.0000000000005" as="targetPoint" />
          </mxGeometry>
        </mxCell>
        <mxCell id="FmSPM2KVEhR57PtNCctB-136" value="" style="endArrow=none;dashed=1;html=1;" edge="1" parent="1">
          <mxGeometry width="50" height="50" relative="1" as="geometry">
            <mxPoint x="280" y="1050" as="sourcePoint" />
            <mxPoint x="280" y="640" as="targetPoint" />
          </mxGeometry>
        </mxCell>
        <mxCell id="FmSPM2KVEhR57PtNCctB-103" value="" style="shape=cylinder3;whiteSpace=wrap;html=1;boundedLbl=1;backgroundOutline=1;size=15;rotation=-90;" vertex="1" parent="1">
          <mxGeometry x="304" y="610" width="30" height="185" as="geometry" />
        </mxCell>
        <mxCell id="FmSPM2KVEhR57PtNCctB-80" value="" style="rounded=0;whiteSpace=wrap;html=1;" vertex="1" parent="1">
          <mxGeometry x="247" y="90" width="10" height="20" as="geometry" />
        </mxCell>
        <mxCell id="FmSPM2KVEhR57PtNCctB-75" value="" style="rounded=0;whiteSpace=wrap;html=1;" vertex="1" parent="1">
          <mxGeometry x="210" y="70" width="310" height="470" as="geometry" />
        </mxCell>
        <mxCell id="FmSPM2KVEhR57PtNCctB-38" value="" style="group" vertex="1" connectable="0" parent="1">
          <mxGeometry x="237" y="120" width="193" height="340" as="geometry" />
        </mxCell>
        <mxCell id="FmSPM2KVEhR57PtNCctB-1" value="" style="rounded=0;whiteSpace=wrap;html=1;" vertex="1" parent="FmSPM2KVEhR57PtNCctB-38">
          <mxGeometry width="120" height="310" as="geometry" />
        </mxCell>
        <mxCell id="FmSPM2KVEhR57PtNCctB-2" value="" style="ellipse;whiteSpace=wrap;html=1;aspect=fixed;" vertex="1" parent="FmSPM2KVEhR57PtNCctB-38">
          <mxGeometry x="10" y="10" width="20" height="20" as="geometry" />
        </mxCell>
        <mxCell id="FmSPM2KVEhR57PtNCctB-3" value="" style="ellipse;whiteSpace=wrap;html=1;aspect=fixed;" vertex="1" parent="FmSPM2KVEhR57PtNCctB-38">
          <mxGeometry x="50" y="10" width="20" height="20" as="geometry" />
        </mxCell>
        <mxCell id="FmSPM2KVEhR57PtNCctB-4" value="" style="ellipse;whiteSpace=wrap;html=1;aspect=fixed;" vertex="1" parent="FmSPM2KVEhR57PtNCctB-38">
          <mxGeometry x="90" y="10" width="20" height="20" as="geometry" />
        </mxCell>
        <mxCell id="FmSPM2KVEhR57PtNCctB-5" value="" style="ellipse;whiteSpace=wrap;html=1;aspect=fixed;" vertex="1" parent="FmSPM2KVEhR57PtNCctB-38">
          <mxGeometry x="10" y="40" width="20" height="20" as="geometry" />
        </mxCell>
        <mxCell id="FmSPM2KVEhR57PtNCctB-6" value="" style="ellipse;whiteSpace=wrap;html=1;aspect=fixed;" vertex="1" parent="FmSPM2KVEhR57PtNCctB-38">
          <mxGeometry x="50" y="40" width="20" height="20" as="geometry" />
        </mxCell>
        <mxCell id="FmSPM2KVEhR57PtNCctB-7" value="" style="ellipse;whiteSpace=wrap;html=1;aspect=fixed;" vertex="1" parent="FmSPM2KVEhR57PtNCctB-38">
          <mxGeometry x="90" y="40" width="20" height="20" as="geometry" />
        </mxCell>
        <mxCell id="FmSPM2KVEhR57PtNCctB-8" value="" style="ellipse;whiteSpace=wrap;html=1;aspect=fixed;" vertex="1" parent="FmSPM2KVEhR57PtNCctB-38">
          <mxGeometry x="10" y="70" width="20" height="20" as="geometry" />
        </mxCell>
        <mxCell id="FmSPM2KVEhR57PtNCctB-9" value="" style="ellipse;whiteSpace=wrap;html=1;aspect=fixed;" vertex="1" parent="FmSPM2KVEhR57PtNCctB-38">
          <mxGeometry x="50" y="70" width="20" height="20" as="geometry" />
        </mxCell>
        <mxCell id="FmSPM2KVEhR57PtNCctB-10" value="" style="ellipse;whiteSpace=wrap;html=1;aspect=fixed;" vertex="1" parent="FmSPM2KVEhR57PtNCctB-38">
          <mxGeometry x="90" y="70" width="20" height="20" as="geometry" />
        </mxCell>
        <mxCell id="FmSPM2KVEhR57PtNCctB-11" value="" style="ellipse;whiteSpace=wrap;html=1;aspect=fixed;" vertex="1" parent="FmSPM2KVEhR57PtNCctB-38">
          <mxGeometry x="10" y="100" width="20" height="20" as="geometry" />
        </mxCell>
        <mxCell id="FmSPM2KVEhR57PtNCctB-12" value="" style="ellipse;whiteSpace=wrap;html=1;aspect=fixed;" vertex="1" parent="FmSPM2KVEhR57PtNCctB-38">
          <mxGeometry x="50" y="100" width="20" height="20" as="geometry" />
        </mxCell>
        <mxCell id="FmSPM2KVEhR57PtNCctB-13" value="" style="ellipse;whiteSpace=wrap;html=1;aspect=fixed;" vertex="1" parent="FmSPM2KVEhR57PtNCctB-38">
          <mxGeometry x="90" y="100" width="20" height="20" as="geometry" />
        </mxCell>
        <mxCell id="FmSPM2KVEhR57PtNCctB-14" value="" style="ellipse;whiteSpace=wrap;html=1;aspect=fixed;" vertex="1" parent="FmSPM2KVEhR57PtNCctB-38">
          <mxGeometry x="10" y="130" width="20" height="20" as="geometry" />
        </mxCell>
        <mxCell id="FmSPM2KVEhR57PtNCctB-15" value="" style="ellipse;whiteSpace=wrap;html=1;aspect=fixed;" vertex="1" parent="FmSPM2KVEhR57PtNCctB-38">
          <mxGeometry x="50" y="130" width="20" height="20" as="geometry" />
        </mxCell>
        <mxCell id="FmSPM2KVEhR57PtNCctB-16" value="" style="ellipse;whiteSpace=wrap;html=1;aspect=fixed;" vertex="1" parent="FmSPM2KVEhR57PtNCctB-38">
          <mxGeometry x="90" y="130" width="20" height="20" as="geometry" />
        </mxCell>
        <mxCell id="FmSPM2KVEhR57PtNCctB-17" value="" style="ellipse;whiteSpace=wrap;html=1;aspect=fixed;" vertex="1" parent="FmSPM2KVEhR57PtNCctB-38">
          <mxGeometry x="10" y="160" width="20" height="20" as="geometry" />
        </mxCell>
        <mxCell id="FmSPM2KVEhR57PtNCctB-18" value="" style="ellipse;whiteSpace=wrap;html=1;aspect=fixed;" vertex="1" parent="FmSPM2KVEhR57PtNCctB-38">
          <mxGeometry x="50" y="160" width="20" height="20" as="geometry" />
        </mxCell>
        <mxCell id="FmSPM2KVEhR57PtNCctB-19" value="" style="ellipse;whiteSpace=wrap;html=1;aspect=fixed;" vertex="1" parent="FmSPM2KVEhR57PtNCctB-38">
          <mxGeometry x="90" y="160" width="20" height="20" as="geometry" />
        </mxCell>
        <mxCell id="FmSPM2KVEhR57PtNCctB-20" value="" style="ellipse;whiteSpace=wrap;html=1;aspect=fixed;" vertex="1" parent="FmSPM2KVEhR57PtNCctB-38">
          <mxGeometry x="10" y="190" width="20" height="20" as="geometry" />
        </mxCell>
        <mxCell id="FmSPM2KVEhR57PtNCctB-21" value="" style="ellipse;whiteSpace=wrap;html=1;aspect=fixed;" vertex="1" parent="FmSPM2KVEhR57PtNCctB-38">
          <mxGeometry x="50" y="190" width="20" height="20" as="geometry" />
        </mxCell>
        <mxCell id="FmSPM2KVEhR57PtNCctB-22" value="" style="ellipse;whiteSpace=wrap;html=1;aspect=fixed;" vertex="1" parent="FmSPM2KVEhR57PtNCctB-38">
          <mxGeometry x="90" y="190" width="20" height="20" as="geometry" />
        </mxCell>
        <mxCell id="FmSPM2KVEhR57PtNCctB-23" value="" style="ellipse;whiteSpace=wrap;html=1;aspect=fixed;" vertex="1" parent="FmSPM2KVEhR57PtNCctB-38">
          <mxGeometry x="10" y="220" width="20" height="20" as="geometry" />
        </mxCell>
        <mxCell id="FmSPM2KVEhR57PtNCctB-24" value="" style="ellipse;whiteSpace=wrap;html=1;aspect=fixed;" vertex="1" parent="FmSPM2KVEhR57PtNCctB-38">
          <mxGeometry x="50" y="220" width="20" height="20" as="geometry" />
        </mxCell>
        <mxCell id="FmSPM2KVEhR57PtNCctB-25" value="" style="ellipse;whiteSpace=wrap;html=1;aspect=fixed;" vertex="1" parent="FmSPM2KVEhR57PtNCctB-38">
          <mxGeometry x="90" y="220" width="20" height="20" as="geometry" />
        </mxCell>
        <mxCell id="FmSPM2KVEhR57PtNCctB-26" value="" style="ellipse;whiteSpace=wrap;html=1;aspect=fixed;" vertex="1" parent="FmSPM2KVEhR57PtNCctB-38">
          <mxGeometry x="10" y="250" width="20" height="20" as="geometry" />
        </mxCell>
        <mxCell id="FmSPM2KVEhR57PtNCctB-27" value="" style="ellipse;whiteSpace=wrap;html=1;aspect=fixed;" vertex="1" parent="FmSPM2KVEhR57PtNCctB-38">
          <mxGeometry x="50" y="250" width="20" height="20" as="geometry" />
        </mxCell>
        <mxCell id="FmSPM2KVEhR57PtNCctB-28" value="" style="ellipse;whiteSpace=wrap;html=1;aspect=fixed;" vertex="1" parent="FmSPM2KVEhR57PtNCctB-38">
          <mxGeometry x="90" y="250" width="20" height="20" as="geometry" />
        </mxCell>
        <mxCell id="FmSPM2KVEhR57PtNCctB-29" value="" style="ellipse;whiteSpace=wrap;html=1;aspect=fixed;" vertex="1" parent="FmSPM2KVEhR57PtNCctB-38">
          <mxGeometry x="10" y="280" width="20" height="20" as="geometry" />
        </mxCell>
        <mxCell id="FmSPM2KVEhR57PtNCctB-30" value="" style="ellipse;whiteSpace=wrap;html=1;aspect=fixed;" vertex="1" parent="FmSPM2KVEhR57PtNCctB-38">
          <mxGeometry x="50" y="280" width="20" height="20" as="geometry" />
        </mxCell>
        <mxCell id="FmSPM2KVEhR57PtNCctB-31" value="" style="ellipse;whiteSpace=wrap;html=1;aspect=fixed;" vertex="1" parent="FmSPM2KVEhR57PtNCctB-38">
          <mxGeometry x="90" y="280" width="20" height="20" as="geometry" />
        </mxCell>
        <mxCell id="FmSPM2KVEhR57PtNCctB-76" value="" style="shape=cylinder3;whiteSpace=wrap;html=1;boundedLbl=1;backgroundOutline=1;size=15;" vertex="1" parent="1">
          <mxGeometry x="390" y="480" width="35" height="50" as="geometry" />
        </mxCell>
        <mxCell id="FmSPM2KVEhR57PtNCctB-77" value="" style="shape=cylinder3;whiteSpace=wrap;html=1;boundedLbl=1;backgroundOutline=1;size=3;" vertex="1" parent="1">
          <mxGeometry x="400" y="90" width="7.5" height="410" as="geometry" />
        </mxCell>
        <mxCell id="FmSPM2KVEhR57PtNCctB-78" value="" style="shape=cylinder3;whiteSpace=wrap;html=1;boundedLbl=1;backgroundOutline=1;size=3;rotation=90;" vertex="1" parent="1">
          <mxGeometry x="314" y="14" width="7.5" height="160" as="geometry" />
        </mxCell>
        <mxCell id="FmSPM2KVEhR57PtNCctB-79" value="" style="endArrow=none;dashed=1;html=1;exitX=0.006;exitY=0.811;exitDx=0;exitDy=0;exitPerimeter=0;entryX=0.997;entryY=0.806;entryDx=0;entryDy=0;entryPerimeter=0;" edge="1" parent="1" source="FmSPM2KVEhR57PtNCctB-75" target="FmSPM2KVEhR57PtNCctB-75">
          <mxGeometry width="50" height="50" relative="1" as="geometry">
            <mxPoint x="360" y="310" as="sourcePoint" />
            <mxPoint x="410" y="260" as="targetPoint" />
            <Array as="points">
              <mxPoint x="520" y="451" />
            </Array>
          </mxGeometry>
        </mxCell>
        <mxCell id="FmSPM2KVEhR57PtNCctB-81" value="" style="rounded=0;whiteSpace=wrap;html=1;" vertex="1" parent="1">
          <mxGeometry x="257" y="90" width="10" height="20" as="geometry" />
        </mxCell>
        <mxCell id="FmSPM2KVEhR57PtNCctB-82" value="" style="rounded=0;whiteSpace=wrap;html=1;" vertex="1" parent="1">
          <mxGeometry x="280" y="90" width="10" height="20" as="geometry" />
        </mxCell>
        <mxCell id="FmSPM2KVEhR57PtNCctB-83" value="" style="rounded=0;whiteSpace=wrap;html=1;" vertex="1" parent="1">
          <mxGeometry x="304" y="90" width="10" height="20" as="geometry" />
        </mxCell>
        <mxCell id="FmSPM2KVEhR57PtNCctB-84" value="" style="rounded=0;whiteSpace=wrap;html=1;" vertex="1" parent="1">
          <mxGeometry x="328.5" y="90" width="10" height="20" as="geometry" />
        </mxCell>
        <mxCell id="FmSPM2KVEhR57PtNCctB-85" value="INDOOR FAN" style="rounded=0;whiteSpace=wrap;html=1;" vertex="1" parent="1">
          <mxGeometry x="470" y="100" width="120" height="210" as="geometry" />
        </mxCell>
        <mxCell id="FmSPM2KVEhR57PtNCctB-86" value="WATER TANK" style="text;html=1;strokeColor=none;fillColor=none;align=center;verticalAlign=middle;whiteSpace=wrap;rounded=0;" vertex="1" parent="1">
          <mxGeometry x="242" y="470" width="108" height="20" as="geometry" />
        </mxCell>
        <mxCell id="FmSPM2KVEhR57PtNCctB-87" value="PUMP" style="text;html=1;strokeColor=none;fillColor=none;align=center;verticalAlign=middle;whiteSpace=wrap;rounded=0;" vertex="1" parent="1">
          <mxGeometry x="440" y="490" width="40" height="20" as="geometry" />
        </mxCell>
        <mxCell id="FmSPM2KVEhR57PtNCctB-88" value="WATER SPRAY" style="text;html=1;strokeColor=none;fillColor=none;align=center;verticalAlign=middle;whiteSpace=wrap;rounded=0;" vertex="1" parent="1">
          <mxGeometry x="242" y="70" width="138" height="20" as="geometry" />
        </mxCell>
        <mxCell id="FmSPM2KVEhR57PtNCctB-89" value="CONDENSOR COIL" style="text;html=1;strokeColor=none;fillColor=none;align=center;verticalAlign=middle;whiteSpace=wrap;rounded=0;" vertex="1" parent="1">
          <mxGeometry x="150" y="230" width="40" height="20" as="geometry" />
        </mxCell>
        <mxCell id="FmSPM2KVEhR57PtNCctB-90" value="" style="rounded=0;whiteSpace=wrap;html=1;" vertex="1" parent="1">
          <mxGeometry x="470" y="330" width="120" height="100" as="geometry" />
        </mxCell>
        <mxCell id="FmSPM2KVEhR57PtNCctB-91" value="" style="shape=flexArrow;endArrow=classic;html=1;" edge="1" parent="1">
          <mxGeometry width="50" height="50" relative="1" as="geometry">
            <mxPoint x="620" y="210" as="sourcePoint" />
            <mxPoint x="690" y="210" as="targetPoint" />
          </mxGeometry>
        </mxCell>
        <mxCell id="FmSPM2KVEhR57PtNCctB-92" value="" style="shape=flexArrow;endArrow=classic;html=1;" edge="1" parent="1">
          <mxGeometry width="50" height="50" relative="1" as="geometry">
            <mxPoint x="620" y="174" as="sourcePoint" />
            <mxPoint x="690" y="174" as="targetPoint" />
          </mxGeometry>
        </mxCell>
        <mxCell id="FmSPM2KVEhR57PtNCctB-93" value="" style="shape=flexArrow;endArrow=classic;html=1;" edge="1" parent="1">
          <mxGeometry width="50" height="50" relative="1" as="geometry">
            <mxPoint x="620" y="130" as="sourcePoint" />
            <mxPoint x="690" y="130" as="targetPoint" />
          </mxGeometry>
        </mxCell>
        <mxCell id="FmSPM2KVEhR57PtNCctB-94" value="" style="shape=flexArrow;endArrow=classic;html=1;" edge="1" parent="1">
          <mxGeometry width="50" height="50" relative="1" as="geometry">
            <mxPoint x="620" y="249" as="sourcePoint" />
            <mxPoint x="690" y="249" as="targetPoint" />
          </mxGeometry>
        </mxCell>
        <mxCell id="FmSPM2KVEhR57PtNCctB-96" value="" style="shape=flexArrow;endArrow=classic;html=1;" edge="1" parent="1">
          <mxGeometry width="50" height="50" relative="1" as="geometry">
            <mxPoint x="620" y="289.5" as="sourcePoint" />
            <mxPoint x="690" y="289.5" as="targetPoint" />
          </mxGeometry>
        </mxCell>
        <mxCell id="FmSPM2KVEhR57PtNCctB-97" value="" style="shape=flexArrow;endArrow=classic;html=1;" edge="1" parent="1">
          <mxGeometry width="50" height="50" relative="1" as="geometry">
            <mxPoint x="680" y="350" as="sourcePoint" />
            <mxPoint x="610" y="350" as="targetPoint" />
          </mxGeometry>
        </mxCell>
        <mxCell id="FmSPM2KVEhR57PtNCctB-98" value="" style="shape=flexArrow;endArrow=classic;html=1;" edge="1" parent="1">
          <mxGeometry width="50" height="50" relative="1" as="geometry">
            <mxPoint x="680" y="379.5" as="sourcePoint" />
            <mxPoint x="610" y="379.5" as="targetPoint" />
          </mxGeometry>
        </mxCell>
        <mxCell id="FmSPM2KVEhR57PtNCctB-99" value="" style="shape=flexArrow;endArrow=classic;html=1;" edge="1" parent="1">
          <mxGeometry width="50" height="50" relative="1" as="geometry">
            <mxPoint x="680" y="410" as="sourcePoint" />
            <mxPoint x="610" y="410" as="targetPoint" />
          </mxGeometry>
        </mxCell>
        <mxCell id="FmSPM2KVEhR57PtNCctB-100" value="AIR IN" style="text;html=1;strokeColor=none;fillColor=none;align=center;verticalAlign=middle;whiteSpace=wrap;rounded=0;" vertex="1" parent="1">
          <mxGeometry x="500" y="370" width="40" height="20" as="geometry" />
        </mxCell>
        <mxCell id="FmSPM2KVEhR57PtNCctB-104" value="" style="shape=cylinder3;whiteSpace=wrap;html=1;boundedLbl=1;backgroundOutline=1;size=15;rotation=-90;" vertex="1" parent="1">
          <mxGeometry x="304" y="650" width="30" height="185" as="geometry" />
        </mxCell>
        <mxCell id="FmSPM2KVEhR57PtNCctB-105" value="" style="shape=cylinder3;whiteSpace=wrap;html=1;boundedLbl=1;backgroundOutline=1;size=15;rotation=-90;" vertex="1" parent="1">
          <mxGeometry x="305.5" y="690" width="30" height="185" as="geometry" />
        </mxCell>
        <mxCell id="FmSPM2KVEhR57PtNCctB-106" value="" style="shape=cylinder3;whiteSpace=wrap;html=1;boundedLbl=1;backgroundOutline=1;size=15;rotation=-90;" vertex="1" parent="1">
          <mxGeometry x="306" y="730" width="30" height="185" as="geometry" />
        </mxCell>
        <mxCell id="FmSPM2KVEhR57PtNCctB-107" value="" style="shape=cylinder3;whiteSpace=wrap;html=1;boundedLbl=1;backgroundOutline=1;size=15;rotation=-90;" vertex="1" parent="1">
          <mxGeometry x="302" y="770" width="30" height="185" as="geometry" />
        </mxCell>
        <mxCell id="FmSPM2KVEhR57PtNCctB-108" value="" style="shape=cylinder3;whiteSpace=wrap;html=1;boundedLbl=1;backgroundOutline=1;size=15;rotation=-90;" vertex="1" parent="1">
          <mxGeometry x="302" y="810" width="30" height="185" as="geometry" />
        </mxCell>
        <mxCell id="FmSPM2KVEhR57PtNCctB-109" value="" style="shape=cylinder3;whiteSpace=wrap;html=1;boundedLbl=1;backgroundOutline=1;size=15;rotation=-90;" vertex="1" parent="1">
          <mxGeometry x="303.5" y="850" width="30" height="185" as="geometry" />
        </mxCell>
        <mxCell id="FmSPM2KVEhR57PtNCctB-110" value="" style="shape=cylinder3;whiteSpace=wrap;html=1;boundedLbl=1;backgroundOutline=1;size=15;rotation=-90;" vertex="1" parent="1">
          <mxGeometry x="304" y="890" width="30" height="185" as="geometry" />
        </mxCell>
        <mxCell id="FmSPM2KVEhR57PtNCctB-111" value="" style="shape=cylinder3;whiteSpace=wrap;html=1;boundedLbl=1;backgroundOutline=1;size=15;rotation=-90;" vertex="1" parent="1">
          <mxGeometry x="340.5" y="630" width="30" height="185" as="geometry" />
        </mxCell>
        <mxCell id="FmSPM2KVEhR57PtNCctB-112" value="" style="shape=cylinder3;whiteSpace=wrap;html=1;boundedLbl=1;backgroundOutline=1;size=15;rotation=-90;" vertex="1" parent="1">
          <mxGeometry x="340.5" y="670" width="30" height="185" as="geometry" />
        </mxCell>
        <mxCell id="FmSPM2KVEhR57PtNCctB-113" value="" style="shape=cylinder3;whiteSpace=wrap;html=1;boundedLbl=1;backgroundOutline=1;size=15;rotation=-90;" vertex="1" parent="1">
          <mxGeometry x="342" y="710" width="30" height="185" as="geometry" />
        </mxCell>
        <mxCell id="FmSPM2KVEhR57PtNCctB-114" value="" style="shape=cylinder3;whiteSpace=wrap;html=1;boundedLbl=1;backgroundOutline=1;size=15;rotation=-90;" vertex="1" parent="1">
          <mxGeometry x="342.5" y="750" width="30" height="185" as="geometry" />
        </mxCell>
        <mxCell id="FmSPM2KVEhR57PtNCctB-115" value="" style="shape=cylinder3;whiteSpace=wrap;html=1;boundedLbl=1;backgroundOutline=1;size=15;rotation=-90;" vertex="1" parent="1">
          <mxGeometry x="338.5" y="790" width="30" height="185" as="geometry" />
        </mxCell>
        <mxCell id="FmSPM2KVEhR57PtNCctB-116" value="" style="shape=cylinder3;whiteSpace=wrap;html=1;boundedLbl=1;backgroundOutline=1;size=15;rotation=-90;" vertex="1" parent="1">
          <mxGeometry x="338.5" y="830" width="30" height="185" as="geometry" />
        </mxCell>
        <mxCell id="FmSPM2KVEhR57PtNCctB-117" value="" style="shape=cylinder3;whiteSpace=wrap;html=1;boundedLbl=1;backgroundOutline=1;size=15;rotation=-90;" vertex="1" parent="1">
          <mxGeometry x="340" y="870" width="30" height="185" as="geometry" />
        </mxCell>
        <mxCell id="FmSPM2KVEhR57PtNCctB-118" value="" style="shape=cylinder3;whiteSpace=wrap;html=1;boundedLbl=1;backgroundOutline=1;size=15;rotation=-90;" vertex="1" parent="1">
          <mxGeometry x="340.5" y="910" width="30" height="185" as="geometry" />
        </mxCell>
        <mxCell id="FmSPM2KVEhR57PtNCctB-119" value="" style="shape=cylinder3;whiteSpace=wrap;html=1;boundedLbl=1;backgroundOutline=1;size=15;rotation=-90;" vertex="1" parent="1">
          <mxGeometry x="382" y="650" width="30" height="185" as="geometry" />
        </mxCell>
        <mxCell id="FmSPM2KVEhR57PtNCctB-120" value="" style="shape=cylinder3;whiteSpace=wrap;html=1;boundedLbl=1;backgroundOutline=1;size=15;rotation=-90;" vertex="1" parent="1">
          <mxGeometry x="382" y="690" width="30" height="185" as="geometry" />
        </mxCell>
        <mxCell id="FmSPM2KVEhR57PtNCctB-121" value="" style="shape=cylinder3;whiteSpace=wrap;html=1;boundedLbl=1;backgroundOutline=1;size=15;rotation=-90;" vertex="1" parent="1">
          <mxGeometry x="383.5" y="730" width="30" height="185" as="geometry" />
        </mxCell>
        <mxCell id="FmSPM2KVEhR57PtNCctB-122" value="" style="shape=cylinder3;whiteSpace=wrap;html=1;boundedLbl=1;backgroundOutline=1;size=15;rotation=-90;" vertex="1" parent="1">
          <mxGeometry x="384" y="770" width="30" height="185" as="geometry" />
        </mxCell>
        <mxCell id="FmSPM2KVEhR57PtNCctB-123" value="" style="shape=cylinder3;whiteSpace=wrap;html=1;boundedLbl=1;backgroundOutline=1;size=15;rotation=-90;" vertex="1" parent="1">
          <mxGeometry x="380" y="810" width="30" height="185" as="geometry" />
        </mxCell>
        <mxCell id="FmSPM2KVEhR57PtNCctB-124" value="" style="shape=cylinder3;whiteSpace=wrap;html=1;boundedLbl=1;backgroundOutline=1;size=15;rotation=-90;" vertex="1" parent="1">
          <mxGeometry x="380" y="850" width="30" height="185" as="geometry" />
        </mxCell>
        <mxCell id="FmSPM2KVEhR57PtNCctB-125" value="" style="shape=cylinder3;whiteSpace=wrap;html=1;boundedLbl=1;backgroundOutline=1;size=15;rotation=-90;" vertex="1" parent="1">
          <mxGeometry x="381.5" y="890" width="30" height="185" as="geometry" />
        </mxCell>
        <mxCell id="FmSPM2KVEhR57PtNCctB-126" value="" style="shape=cylinder3;whiteSpace=wrap;html=1;boundedLbl=1;backgroundOutline=1;size=15;rotation=-90;" vertex="1" parent="1">
          <mxGeometry x="382" y="930" width="30" height="185" as="geometry" />
        </mxCell>
        <mxCell id="FmSPM2KVEhR57PtNCctB-127" value="" style="shape=cylinder3;whiteSpace=wrap;html=1;boundedLbl=1;backgroundOutline=1;size=15;rotation=-90;" vertex="1" parent="1">
          <mxGeometry x="427" y="680" width="30" height="185" as="geometry" />
        </mxCell>
        <mxCell id="FmSPM2KVEhR57PtNCctB-128" value="" style="shape=cylinder3;whiteSpace=wrap;html=1;boundedLbl=1;backgroundOutline=1;size=15;rotation=-90;" vertex="1" parent="1">
          <mxGeometry x="427" y="720" width="30" height="185" as="geometry" />
        </mxCell>
        <mxCell id="FmSPM2KVEhR57PtNCctB-129" value="" style="shape=cylinder3;whiteSpace=wrap;html=1;boundedLbl=1;backgroundOutline=1;size=15;rotation=-90;" vertex="1" parent="1">
          <mxGeometry x="428.5" y="760" width="30" height="185" as="geometry" />
        </mxCell>
        <mxCell id="FmSPM2KVEhR57PtNCctB-130" value="" style="shape=cylinder3;whiteSpace=wrap;html=1;boundedLbl=1;backgroundOutline=1;size=15;rotation=-90;" vertex="1" parent="1">
          <mxGeometry x="429" y="800" width="30" height="185" as="geometry" />
        </mxCell>
        <mxCell id="FmSPM2KVEhR57PtNCctB-131" value="" style="shape=cylinder3;whiteSpace=wrap;html=1;boundedLbl=1;backgroundOutline=1;size=15;rotation=-90;" vertex="1" parent="1">
          <mxGeometry x="425" y="840" width="30" height="185" as="geometry" />
        </mxCell>
        <mxCell id="FmSPM2KVEhR57PtNCctB-132" value="" style="shape=cylinder3;whiteSpace=wrap;html=1;boundedLbl=1;backgroundOutline=1;size=15;rotation=-90;" vertex="1" parent="1">
          <mxGeometry x="425" y="880" width="30" height="185" as="geometry" />
        </mxCell>
        <mxCell id="FmSPM2KVEhR57PtNCctB-133" value="" style="shape=cylinder3;whiteSpace=wrap;html=1;boundedLbl=1;backgroundOutline=1;size=15;rotation=-90;" vertex="1" parent="1">
          <mxGeometry x="426.5" y="920" width="30" height="185" as="geometry" />
        </mxCell>
        <mxCell id="FmSPM2KVEhR57PtNCctB-134" value="" style="shape=cylinder3;whiteSpace=wrap;html=1;boundedLbl=1;backgroundOutline=1;size=15;rotation=-90;" vertex="1" parent="1">
          <mxGeometry x="427" y="960" width="30" height="185" as="geometry" />
        </mxCell>
        <mxCell id="FmSPM2KVEhR57PtNCctB-135" value="" style="endArrow=none;dashed=1;html=1;exitX=-0.017;exitY=0.462;exitDx=0;exitDy=0;exitPerimeter=0;" edge="1" parent="1" source="FmSPM2KVEhR57PtNCctB-127">
          <mxGeometry width="50" height="50" relative="1" as="geometry">
            <mxPoint x="360" y="890" as="sourcePoint" />
            <mxPoint x="280" y="640" as="targetPoint" />
          </mxGeometry>
        </mxCell>
        <mxCell id="FmSPM2KVEhR57PtNCctB-137" value="" style="endArrow=none;dashed=1;html=1;exitX=-0.017;exitY=0.462;exitDx=0;exitDy=0;exitPerimeter=0;" edge="1" parent="1">
          <mxGeometry width="50" height="50" relative="1" as="geometry">
            <mxPoint x="435.97" y="1198.01" as="sourcePoint" />
            <mxPoint x="281" y="1050" as="targetPoint" />
          </mxGeometry>
        </mxCell>
        <mxCell id="FmSPM2KVEhR57PtNCctB-138" value="" style="endArrow=none;dashed=1;html=1;" edge="1" parent="1">
          <mxGeometry width="50" height="50" relative="1" as="geometry">
            <mxPoint x="435" y="1198" as="sourcePoint" />
            <mxPoint x="435" y="788" as="targetPoint" />
          </mxGeometry>
        </mxCell>
        <mxCell id="FmSPM2KVEhR57PtNCctB-139" value="" style="endArrow=none;dashed=1;html=1;" edge="1" parent="1">
          <mxGeometry width="50" height="50" relative="1" as="geometry">
            <mxPoint x="381" y="1060" as="sourcePoint" />
            <mxPoint x="381" y="650" as="targetPoint" />
          </mxGeometry>
        </mxCell>
        <mxCell id="FmSPM2KVEhR57PtNCctB-140" value="" style="endArrow=none;dashed=1;html=1;exitX=-0.017;exitY=0.462;exitDx=0;exitDy=0;exitPerimeter=0;" edge="1" parent="1">
          <mxGeometry width="50" height="50" relative="1" as="geometry">
            <mxPoint x="535.97" y="798.01" as="sourcePoint" />
            <mxPoint x="381" y="650" as="targetPoint" />
          </mxGeometry>
        </mxCell>
        <mxCell id="FmSPM2KVEhR57PtNCctB-141" value="" style="endArrow=none;dashed=1;html=1;exitX=-0.017;exitY=0.462;exitDx=0;exitDy=0;exitPerimeter=0;" edge="1" parent="1">
          <mxGeometry width="50" height="50" relative="1" as="geometry">
            <mxPoint x="536.97" y="1208.01" as="sourcePoint" />
            <mxPoint x="382" y="1060" as="targetPoint" />
          </mxGeometry>
        </mxCell>
        <mxCell id="FmSPM2KVEhR57PtNCctB-142" value="" style="endArrow=none;dashed=1;html=1;" edge="1" parent="1">
          <mxGeometry width="50" height="50" relative="1" as="geometry">
            <mxPoint x="536" y="1208" as="sourcePoint" />
            <mxPoint x="536" y="798" as="targetPoint" />
          </mxGeometry>
        </mxCell>
        <mxCell id="FmSPM2KVEhR57PtNCctB-143" value="" style="shape=cylinder3;whiteSpace=wrap;html=1;boundedLbl=1;backgroundOutline=1;size=5;" vertex="1" parent="1">
          <mxGeometry x="320" y="600" width="46" height="40" as="geometry" />
        </mxCell>
        <mxCell id="FmSPM2KVEhR57PtNCctB-144" value="" style="shape=cylinder3;whiteSpace=wrap;html=1;boundedLbl=1;backgroundOutline=1;size=5;" vertex="1" parent="1">
          <mxGeometry x="354" y="630" width="46" height="40" as="geometry" />
        </mxCell>
        <mxCell id="FmSPM2KVEhR57PtNCctB-145" value="" style="shape=cylinder3;whiteSpace=wrap;html=1;boundedLbl=1;backgroundOutline=1;size=5;" vertex="1" parent="1">
          <mxGeometry x="402" y="660" width="46" height="40" as="geometry" />
        </mxCell>
        <mxCell id="FmSPM2KVEhR57PtNCctB-146" value="" style="shape=cylinder3;whiteSpace=wrap;html=1;boundedLbl=1;backgroundOutline=1;size=5;" vertex="1" parent="1">
          <mxGeometry x="457" y="700" width="46" height="40" as="geometry" />
        </mxCell>
        <mxCell id="FmSPM2KVEhR57PtNCctB-147" value="" style="shape=cylinder3;whiteSpace=wrap;html=1;boundedLbl=1;backgroundOutline=1;size=0;rotation=-50;" vertex="1" parent="1">
          <mxGeometry x="520.21" y="509.99" width="14.04" height="490" as="geometry" />
        </mxCell>
        <mxCell id="FmSPM2KVEhR57PtNCctB-148" value="" style="rounded=0;whiteSpace=wrap;html=1;" vertex="1" parent="1">
          <mxGeometry x="700" y="905" width="20" height="365" as="geometry" />
        </mxCell>
        <mxCell id="FmSPM2KVEhR57PtNCctB-149" value="&lt;font style=&quot;font-size: 19px&quot;&gt;FROM&amp;nbsp;&lt;br&gt;PUMP&lt;/font&gt;" style="text;html=1;strokeColor=none;fillColor=none;align=center;verticalAlign=middle;whiteSpace=wrap;rounded=0;" vertex="1" parent="1">
          <mxGeometry x="740" y="1065" width="40" height="20" as="geometry" />
        </mxCell>
        <mxCell id="FmSPM2KVEhR57PtNCctB-150" value="&lt;font style=&quot;font-size: 27px&quot;&gt;AIR GOES IN&lt;/font&gt;" style="text;html=1;strokeColor=none;fillColor=none;align=center;verticalAlign=middle;whiteSpace=wrap;rounded=0;" vertex="1" parent="1">
          <mxGeometry x="90" y="815" width="40" height="20" as="geometry" />
        </mxCell>
        <mxCell id="FmSPM2KVEhR57PtNCctB-151" value="&lt;font style=&quot;font-size: 21px&quot;&gt;AIR&lt;br&gt;COMES&amp;nbsp;&lt;br&gt;OUT&lt;/font&gt;" style="text;html=1;strokeColor=none;fillColor=none;align=center;verticalAlign=middle;whiteSpace=wrap;rounded=0;" vertex="1" parent="1">
          <mxGeometry x="730" y="832.5" width="40" height="20" as="geometry" />
        </mxCell>
        <mxCell id="FmSPM2KVEhR57PtNCctB-153" value="" style="shape=flexArrow;endArrow=classic;html=1;fillColor=#e51400;strokeColor=#B20000;" edge="1" parent="1">
          <mxGeometry width="50" height="50" relative="1" as="geometry">
            <mxPoint x="70" y="702" as="sourcePoint" />
            <mxPoint x="187" y="702" as="targetPoint" />
          </mxGeometry>
        </mxCell>
        <mxCell id="FmSPM2KVEhR57PtNCctB-154" value="" style="shape=flexArrow;endArrow=classic;html=1;fillColor=#e51400;strokeColor=#B20000;" edge="1" parent="1">
          <mxGeometry width="50" height="50" relative="1" as="geometry">
            <mxPoint x="71" y="754.0000000000002" as="sourcePoint" />
            <mxPoint x="188" y="754.0000000000002" as="targetPoint" />
          </mxGeometry>
        </mxCell>
        <mxCell id="FmSPM2KVEhR57PtNCctB-155" value="" style="shape=flexArrow;endArrow=classic;html=1;fillColor=#e51400;strokeColor=#B20000;" edge="1" parent="1">
          <mxGeometry width="50" height="50" relative="1" as="geometry">
            <mxPoint x="70" y="890.0000000000002" as="sourcePoint" />
            <mxPoint x="187" y="890.0000000000002" as="targetPoint" />
          </mxGeometry>
        </mxCell>
        <mxCell id="FmSPM2KVEhR57PtNCctB-156" value="" style="shape=flexArrow;endArrow=classic;html=1;fillColor=#e51400;strokeColor=#B20000;" edge="1" parent="1">
          <mxGeometry width="50" height="50" relative="1" as="geometry">
            <mxPoint x="71" y="935.0000000000005" as="sourcePoint" />
            <mxPoint x="188" y="935.0000000000005" as="targetPoint" />
          </mxGeometry>
        </mxCell>
        <mxCell id="FmSPM2KVEhR57PtNCctB-157" value="" style="shape=flexArrow;endArrow=classic;html=1;fillColor=#e51400;strokeColor=#B20000;" edge="1" parent="1">
          <mxGeometry width="50" height="50" relative="1" as="geometry">
            <mxPoint x="74" y="981.0000000000005" as="sourcePoint" />
            <mxPoint x="191" y="981.0000000000005" as="targetPoint" />
          </mxGeometry>
        </mxCell>
        <mxCell id="FmSPM2KVEhR57PtNCctB-163" value="" style="endArrow=none;dashed=1;html=1;entryX=0.051;entryY=0.123;entryDx=0;entryDy=0;entryPerimeter=0;" edge="1" parent="1" target="FmSPM2KVEhR57PtNCctB-147">
          <mxGeometry width="50" height="50" relative="1" as="geometry">
            <mxPoint x="280" y="640" as="sourcePoint" />
            <mxPoint x="470" y="620" as="targetPoint" />
          </mxGeometry>
        </mxCell>
        <mxCell id="FmSPM2KVEhR57PtNCctB-164" value="" style="endArrow=none;dashed=1;html=1;dashPattern=1 3;strokeWidth=2;" edge="1" parent="1">
          <mxGeometry width="50" height="50" relative="1" as="geometry">
            <mxPoint x="430" y="1200" as="sourcePoint" />
            <mxPoint x="530" y="1200" as="targetPoint" />
          </mxGeometry>
        </mxCell>
        <mxCell id="FmSPM2KVEhR57PtNCctB-165" value="" style="endArrow=classic;html=1;exitX=1;exitY=0;exitDx=0;exitDy=131.25;exitPerimeter=0;" edge="1" parent="1">
          <mxGeometry width="50" height="50" relative="1" as="geometry">
            <mxPoint x="480.75" y="750.5" as="sourcePoint" />
            <mxPoint x="481" y="803" as="targetPoint" />
          </mxGeometry>
        </mxCell>
        <mxCell id="FmSPM2KVEhR57PtNCctB-166" value="" style="endArrow=classic;html=1;exitX=1;exitY=0;exitDx=0;exitDy=131.25;exitPerimeter=0;" edge="1" parent="1">
          <mxGeometry width="50" height="50" relative="1" as="geometry">
            <mxPoint x="433.75" y="718.5" as="sourcePoint" />
            <mxPoint x="434" y="771" as="targetPoint" />
          </mxGeometry>
        </mxCell>
        <mxCell id="FmSPM2KVEhR57PtNCctB-167" value="" style="endArrow=classic;html=1;exitX=1;exitY=0;exitDx=0;exitDy=131.25;exitPerimeter=0;" edge="1" parent="1">
          <mxGeometry width="50" height="50" relative="1" as="geometry">
            <mxPoint x="387.75" y="681.5" as="sourcePoint" />
            <mxPoint x="387.9999999999998" y="734" as="targetPoint" />
          </mxGeometry>
        </mxCell>
        <mxCell id="FmSPM2KVEhR57PtNCctB-168" value="" style="endArrow=classic;html=1;exitX=1;exitY=0;exitDx=0;exitDy=131.25;exitPerimeter=0;" edge="1" parent="1">
          <mxGeometry width="50" height="50" relative="1" as="geometry">
            <mxPoint x="344.7500000000002" y="647.5" as="sourcePoint" />
            <mxPoint x="344.9999999999998" y="700" as="targetPoint" />
          </mxGeometry>
        </mxCell>
        <mxCell id="FmSPM2KVEhR57PtNCctB-169" value="" style="endArrow=none;dashed=1;html=1;" edge="1" parent="1">
          <mxGeometry width="50" height="50" relative="1" as="geometry">
            <mxPoint x="200" y="1200" as="sourcePoint" />
            <mxPoint x="440" y="1200" as="targetPoint" />
          </mxGeometry>
        </mxCell>
        <mxCell id="FmSPM2KVEhR57PtNCctB-170" value="" style="endArrow=none;dashed=1;html=1;" edge="1" parent="1">
          <mxGeometry width="50" height="50" relative="1" as="geometry">
            <mxPoint x="40" y="1051.79" as="sourcePoint" />
            <mxPoint x="280" y="1051.79" as="targetPoint" />
          </mxGeometry>
        </mxCell>
        <mxCell id="FmSPM2KVEhR57PtNCctB-171" value="" style="endArrow=none;dashed=1;html=1;dashPattern=1 3;strokeWidth=2;" edge="1" parent="1">
          <mxGeometry width="50" height="50" relative="1" as="geometry">
            <mxPoint x="200" y="1200" as="sourcePoint" />
            <mxPoint x="40" y="1050" as="targetPoint" />
          </mxGeometry>
        </mxCell>
        <mxCell id="FmSPM2KVEhR57PtNCctB-172" value="" style="endArrow=none;dashed=1;html=1;" edge="1" parent="1">
          <mxGeometry width="50" height="50" relative="1" as="geometry">
            <mxPoint x="200" y="1200" as="sourcePoint" />
            <mxPoint x="200" y="1360" as="targetPoint" />
          </mxGeometry>
        </mxCell>
        <mxCell id="FmSPM2KVEhR57PtNCctB-173" value="" style="endArrow=none;dashed=1;html=1;" edge="1" parent="1">
          <mxGeometry width="50" height="50" relative="1" as="geometry">
            <mxPoint x="40" y="1050" as="sourcePoint" />
            <mxPoint x="40" y="1210" as="targetPoint" />
          </mxGeometry>
        </mxCell>
        <mxCell id="FmSPM2KVEhR57PtNCctB-174" value="" style="endArrow=none;dashed=1;html=1;" edge="1" parent="1">
          <mxGeometry width="50" height="50" relative="1" as="geometry">
            <mxPoint x="534.25" y="1200" as="sourcePoint" />
            <mxPoint x="534.25" y="1360" as="targetPoint" />
          </mxGeometry>
        </mxCell>
        <mxCell id="FmSPM2KVEhR57PtNCctB-175" value="" style="endArrow=none;dashed=1;html=1;" edge="1" parent="1">
          <mxGeometry width="50" height="50" relative="1" as="geometry">
            <mxPoint x="40" y="1210" as="sourcePoint" />
            <mxPoint x="200" y="1360" as="targetPoint" />
          </mxGeometry>
        </mxCell>
        <mxCell id="FmSPM2KVEhR57PtNCctB-176" value="" style="endArrow=none;dashed=1;html=1;" edge="1" parent="1">
          <mxGeometry width="50" height="50" relative="1" as="geometry">
            <mxPoint x="200" y="1360" as="sourcePoint" />
            <mxPoint x="540" y="1360" as="targetPoint" />
          </mxGeometry>
        </mxCell>
        <mxCell id="FmSPM2KVEhR57PtNCctB-177" value="&lt;font style=&quot;font-size: 26px&quot;&gt;WATER TANK&amp;nbsp;&lt;/font&gt;" style="text;html=1;strokeColor=none;fillColor=none;align=center;verticalAlign=middle;whiteSpace=wrap;rounded=0;" vertex="1" parent="1">
          <mxGeometry x="274" y="1290" width="126" height="20" as="geometry" />
        </mxCell>
        <mxCell id="FmSPM2KVEhR57PtNCctB-178" value="" style="endArrow=classic;html=1;" edge="1" parent="1">
          <mxGeometry width="50" height="50" relative="1" as="geometry">
            <mxPoint x="500" y="1094" as="sourcePoint" />
            <mxPoint x="500" y="1254" as="targetPoint" />
          </mxGeometry>
        </mxCell>
        <mxCell id="FmSPM2KVEhR57PtNCctB-179" value="" style="endArrow=classic;html=1;" edge="1" parent="1">
          <mxGeometry width="50" height="50" relative="1" as="geometry">
            <mxPoint x="448" y="1075" as="sourcePoint" />
            <mxPoint x="448" y="1235" as="targetPoint" />
          </mxGeometry>
        </mxCell>
      </root>
    </mxGraphModel>
  </diagram>
</mxfile>
